<mxfile host="Electron" modified="2024-05-30T13:40:46.157Z" agent="Mozilla/5.0 (Windows NT 10.0; Win64; x64) AppleWebKit/537.36 (KHTML, like Gecko) draw.io/24.4.8 Chrome/124.0.6367.207 Electron/30.0.6 Safari/537.36" version="24.4.8" etag="cVSCeRl4kPXzIE9tdcZe" type="device">
  <diagram id="C5RBs43oDa-KdzZeNtuy" name="Page-1">
    <mxGraphModel dx="7126" dy="5017" grid="1" gridSize="10" guides="1" tooltips="1" connect="1" arrows="1" fold="1" page="1" pageScale="1" pageWidth="1200" pageHeight="1600" math="0" shadow="0">
      <root>
        <mxCell id="WIyWlLk6GJQsqaUBKTNV-0" />
        <mxCell id="WIyWlLk6GJQsqaUBKTNV-1" parent="WIyWlLk6GJQsqaUBKTNV-0" />
        <mxCell id="TKN5x8VOKqGEZoHQyoC4-3" value="&amp;lt;&amp;lt;interface&amp;gt;&amp;gt;&lt;div&gt;CommentRepository&lt;/div&gt;" style="swimlane;fontStyle=1;align=center;verticalAlign=top;childLayout=stackLayout;horizontal=1;startSize=38;horizontalStack=0;resizeParent=1;resizeParentMax=0;resizeLast=0;collapsible=1;marginBottom=0;whiteSpace=wrap;html=1;" vertex="1" parent="WIyWlLk6GJQsqaUBKTNV-1">
          <mxGeometry x="460" y="479" width="160" height="46" as="geometry" />
        </mxCell>
        <mxCell id="TKN5x8VOKqGEZoHQyoC4-5" value="" style="line;strokeWidth=1;fillColor=none;align=left;verticalAlign=middle;spacingTop=-1;spacingLeft=3;spacingRight=3;rotatable=0;labelPosition=right;points=[];portConstraint=eastwest;strokeColor=inherit;" vertex="1" parent="TKN5x8VOKqGEZoHQyoC4-3">
          <mxGeometry y="38" width="160" height="8" as="geometry" />
        </mxCell>
        <mxCell id="TKN5x8VOKqGEZoHQyoC4-7" value="&lt;span style=&quot;font-weight: 400;&quot;&gt;«interface»&lt;/span&gt;&lt;br style=&quot;font-weight: 400;&quot;&gt;JpaRespository&amp;lt;T,Integer&amp;gt;" style="swimlane;fontStyle=1;align=center;verticalAlign=top;childLayout=stackLayout;horizontal=1;startSize=40;horizontalStack=0;resizeParent=1;resizeParentMax=0;resizeLast=0;collapsible=1;marginBottom=0;whiteSpace=wrap;html=1;" vertex="1" parent="WIyWlLk6GJQsqaUBKTNV-1">
          <mxGeometry x="810" y="470" width="200" height="48" as="geometry" />
        </mxCell>
        <mxCell id="TKN5x8VOKqGEZoHQyoC4-9" value="" style="line;strokeWidth=1;fillColor=none;align=left;verticalAlign=middle;spacingTop=-1;spacingLeft=3;spacingRight=3;rotatable=0;labelPosition=right;points=[];portConstraint=eastwest;strokeColor=inherit;" vertex="1" parent="TKN5x8VOKqGEZoHQyoC4-7">
          <mxGeometry y="40" width="200" height="8" as="geometry" />
        </mxCell>
        <mxCell id="TKN5x8VOKqGEZoHQyoC4-11" value="&lt;div&gt;&lt;span style=&quot;font-weight: 400;&quot;&gt;«interface»&lt;/span&gt;&lt;br style=&quot;font-weight: 400;&quot;&gt;&lt;/div&gt;IssueRepository" style="swimlane;fontStyle=1;align=center;verticalAlign=top;childLayout=stackLayout;horizontal=1;startSize=40;horizontalStack=0;resizeParent=1;resizeParentMax=0;resizeLast=0;collapsible=1;marginBottom=0;whiteSpace=wrap;html=1;" vertex="1" parent="WIyWlLk6GJQsqaUBKTNV-1">
          <mxGeometry x="1150" y="436" width="300" height="116" as="geometry" />
        </mxCell>
        <mxCell id="TKN5x8VOKqGEZoHQyoC4-13" value="" style="line;strokeWidth=1;fillColor=none;align=left;verticalAlign=middle;spacingTop=-1;spacingLeft=3;spacingRight=3;rotatable=0;labelPosition=right;points=[];portConstraint=eastwest;strokeColor=inherit;" vertex="1" parent="TKN5x8VOKqGEZoHQyoC4-11">
          <mxGeometry y="40" width="300" height="10" as="geometry" />
        </mxCell>
        <mxCell id="TKN5x8VOKqGEZoHQyoC4-14" value="+ findByTitle(String) : IssueEntity&lt;div&gt;+ findByMemberId(MemberEntity) : List&amp;lt;IssueEntity&amp;gt;&lt;/div&gt;&lt;div&gt;+ findIssuesByAssignee(String) : List&amp;lt;IssueEntity&amp;gt;&lt;/div&gt;&lt;div&gt;+ findByProjectId_ProjectNm(String) List&amp;lt;IssueEntity&amp;gt;&lt;/div&gt;" style="text;strokeColor=none;fillColor=none;align=left;verticalAlign=top;spacingLeft=4;spacingRight=4;overflow=hidden;rotatable=0;points=[[0,0.5],[1,0.5]];portConstraint=eastwest;whiteSpace=wrap;html=1;" vertex="1" parent="TKN5x8VOKqGEZoHQyoC4-11">
          <mxGeometry y="50" width="300" height="66" as="geometry" />
        </mxCell>
        <mxCell id="TKN5x8VOKqGEZoHQyoC4-15" value="" style="endArrow=block;dashed=1;endFill=0;endSize=12;html=1;rounded=0;entryX=1.01;entryY=0.081;entryDx=0;entryDy=0;entryPerimeter=0;exitX=0.002;exitY=-0.076;exitDx=0;exitDy=0;exitPerimeter=0;" edge="1" parent="WIyWlLk6GJQsqaUBKTNV-1" source="TKN5x8VOKqGEZoHQyoC4-14" target="TKN5x8VOKqGEZoHQyoC4-7">
          <mxGeometry width="160" relative="1" as="geometry">
            <mxPoint x="1290" y="540" as="sourcePoint" />
            <mxPoint x="1170" y="402.5" as="targetPoint" />
          </mxGeometry>
        </mxCell>
        <mxCell id="TKN5x8VOKqGEZoHQyoC4-21" value="MemberEntity" style="swimlane;fontStyle=1;align=center;verticalAlign=top;childLayout=stackLayout;horizontal=1;startSize=26;horizontalStack=0;resizeParent=1;resizeParentMax=0;resizeLast=0;collapsible=1;marginBottom=0;whiteSpace=wrap;html=1;" vertex="1" parent="WIyWlLk6GJQsqaUBKTNV-1">
          <mxGeometry x="795" y="894" width="240" height="244" as="geometry" />
        </mxCell>
        <mxCell id="TKN5x8VOKqGEZoHQyoC4-22" value="- memeberId : int&lt;div&gt;- userId : String&lt;br&gt;- userNm : String&lt;/div&gt;&lt;div&gt;- userPwd : String&lt;/div&gt;&lt;div&gt;- userChkPwd : String&lt;/div&gt;&lt;div&gt;- userRoles : String&lt;/div&gt;&lt;div&gt;- nickNm : String&lt;/div&gt;&lt;div&gt;- email : String&lt;/div&gt;&lt;div&gt;- projectId : ProjectEntity&lt;br&gt;- issueEntities : List&amp;lt;IssueEntity&amp;gt;&lt;/div&gt;&lt;div&gt;- commentEntities : List&amp;lt;commentEntities&amp;gt;&lt;/div&gt;" style="text;strokeColor=none;fillColor=none;align=left;verticalAlign=top;spacingLeft=4;spacingRight=4;overflow=hidden;rotatable=0;points=[[0,0.5],[1,0.5]];portConstraint=eastwest;whiteSpace=wrap;html=1;" vertex="1" parent="TKN5x8VOKqGEZoHQyoC4-21">
          <mxGeometry y="26" width="240" height="184" as="geometry" />
        </mxCell>
        <mxCell id="TKN5x8VOKqGEZoHQyoC4-23" value="" style="line;strokeWidth=1;fillColor=none;align=left;verticalAlign=middle;spacingTop=-1;spacingLeft=3;spacingRight=3;rotatable=0;labelPosition=right;points=[];portConstraint=eastwest;strokeColor=inherit;" vertex="1" parent="TKN5x8VOKqGEZoHQyoC4-21">
          <mxGeometry y="210" width="240" height="8" as="geometry" />
        </mxCell>
        <mxCell id="TKN5x8VOKqGEZoHQyoC4-24" value="+ MemberEntity()" style="text;strokeColor=none;fillColor=none;align=left;verticalAlign=top;spacingLeft=4;spacingRight=4;overflow=hidden;rotatable=0;points=[[0,0.5],[1,0.5]];portConstraint=eastwest;whiteSpace=wrap;html=1;" vertex="1" parent="TKN5x8VOKqGEZoHQyoC4-21">
          <mxGeometry y="218" width="240" height="26" as="geometry" />
        </mxCell>
        <mxCell id="TKN5x8VOKqGEZoHQyoC4-26" value="IssueEntity" style="swimlane;fontStyle=1;align=center;verticalAlign=top;childLayout=stackLayout;horizontal=1;startSize=26;horizontalStack=0;resizeParent=1;resizeParentMax=0;resizeLast=0;collapsible=1;marginBottom=0;whiteSpace=wrap;html=1;" vertex="1" parent="WIyWlLk6GJQsqaUBKTNV-1">
          <mxGeometry x="1690" y="362" width="370" height="280" as="geometry" />
        </mxCell>
        <mxCell id="TKN5x8VOKqGEZoHQyoC4-27" value="- issueId : int&lt;div&gt;- title : String&lt;/div&gt;&lt;div&gt;- description : String&lt;/div&gt;&lt;div&gt;- reporter : String&lt;/div&gt;&lt;div&gt;- date : String&lt;/div&gt;&lt;div&gt;- fixer : String&lt;/div&gt;&lt;div&gt;- assignee : String&lt;/div&gt;&lt;div&gt;- priority : String&lt;/div&gt;&lt;div&gt;- state : String&lt;/div&gt;&lt;div&gt;- projectId : ProjectEntity&lt;/div&gt;&lt;div&gt;- memberId : MemberEntity&lt;/div&gt;&lt;div&gt;- commentEntities : List&amp;lt;CommentEntity&amp;gt;&lt;/div&gt;" style="text;strokeColor=none;fillColor=none;align=left;verticalAlign=top;spacingLeft=4;spacingRight=4;overflow=hidden;rotatable=0;points=[[0,0.5],[1,0.5]];portConstraint=eastwest;whiteSpace=wrap;html=1;" vertex="1" parent="TKN5x8VOKqGEZoHQyoC4-26">
          <mxGeometry y="26" width="370" height="204" as="geometry" />
        </mxCell>
        <mxCell id="TKN5x8VOKqGEZoHQyoC4-28" value="" style="line;strokeWidth=1;fillColor=none;align=left;verticalAlign=middle;spacingTop=-1;spacingLeft=3;spacingRight=3;rotatable=0;labelPosition=right;points=[];portConstraint=eastwest;strokeColor=inherit;" vertex="1" parent="TKN5x8VOKqGEZoHQyoC4-26">
          <mxGeometry y="230" width="370" height="8" as="geometry" />
        </mxCell>
        <mxCell id="TKN5x8VOKqGEZoHQyoC4-29" value="+ isResolved() : boolean&lt;div&gt;+ isClosed() : boolean&lt;/div&gt;" style="text;strokeColor=none;fillColor=none;align=left;verticalAlign=top;spacingLeft=4;spacingRight=4;overflow=hidden;rotatable=0;points=[[0,0.5],[1,0.5]];portConstraint=eastwest;whiteSpace=wrap;html=1;" vertex="1" parent="TKN5x8VOKqGEZoHQyoC4-26">
          <mxGeometry y="238" width="370" height="42" as="geometry" />
        </mxCell>
        <mxCell id="TKN5x8VOKqGEZoHQyoC4-36" value="«interface»&lt;br&gt;IssueService" style="swimlane;fontStyle=0;childLayout=stackLayout;horizontal=1;startSize=26;fillColor=none;horizontalStack=0;resizeParent=1;resizeParentMax=0;resizeLast=0;collapsible=1;marginBottom=0;whiteSpace=wrap;html=1;" vertex="1" parent="WIyWlLk6GJQsqaUBKTNV-1">
          <mxGeometry x="1710" y="890" width="390" height="140" as="geometry" />
        </mxCell>
        <mxCell id="TKN5x8VOKqGEZoHQyoC4-37" value="+ insertIssue(IssueCreateVo) : ResponseVo&amp;lt;IssueVo&amp;gt;&lt;div&gt;+ updateIssue(IssueUpdateVo) : ResponseVo&amp;lt;IssueVo&amp;gt;&lt;br&gt;+ getListByUserIdAndState(String, String) : ResponseVo&amp;lt;IssueVo&amp;gt;&lt;/div&gt;&lt;div&gt;+ convertToVo(IssueEntity) : IssueVo&lt;/div&gt;&lt;div&gt;+ getIssueByAssignee(String) : List&amp;lt;IssueVo&amp;gt;&lt;/div&gt;&lt;div&gt;+ recommendAssignee(String) : String&lt;/div&gt;&lt;div&gt;+ getIssuesByProjectName(String) : List&amp;lt;IssueVo&amp;gt;&lt;/div&gt;" style="text;strokeColor=none;fillColor=none;align=left;verticalAlign=top;spacingLeft=4;spacingRight=4;overflow=hidden;rotatable=0;points=[[0,0.5],[1,0.5]];portConstraint=eastwest;whiteSpace=wrap;html=1;" vertex="1" parent="TKN5x8VOKqGEZoHQyoC4-36">
          <mxGeometry y="26" width="390" height="114" as="geometry" />
        </mxCell>
        <mxCell id="TKN5x8VOKqGEZoHQyoC4-40" value="IssueServiceImpl" style="swimlane;fontStyle=1;align=center;verticalAlign=top;childLayout=stackLayout;horizontal=1;startSize=26;horizontalStack=0;resizeParent=1;resizeParentMax=0;resizeLast=0;collapsible=1;marginBottom=0;whiteSpace=wrap;html=1;" vertex="1" parent="WIyWlLk6GJQsqaUBKTNV-1">
          <mxGeometry x="1290" y="937" width="320" height="46" as="geometry" />
        </mxCell>
        <mxCell id="TKN5x8VOKqGEZoHQyoC4-42" value="" style="line;strokeWidth=1;fillColor=none;align=left;verticalAlign=middle;spacingTop=-1;spacingLeft=3;spacingRight=3;rotatable=0;labelPosition=right;points=[];portConstraint=eastwest;strokeColor=inherit;" vertex="1" parent="TKN5x8VOKqGEZoHQyoC4-40">
          <mxGeometry y="26" width="320" height="20" as="geometry" />
        </mxCell>
        <mxCell id="TKN5x8VOKqGEZoHQyoC4-44" value="" style="endArrow=block;dashed=1;endFill=0;endSize=12;html=1;rounded=0;entryX=0;entryY=0.5;entryDx=0;entryDy=0;exitX=1;exitY=0.5;exitDx=0;exitDy=0;" edge="1" parent="WIyWlLk6GJQsqaUBKTNV-1" source="TKN5x8VOKqGEZoHQyoC4-40" target="TKN5x8VOKqGEZoHQyoC4-37">
          <mxGeometry width="160" relative="1" as="geometry">
            <mxPoint x="1570" y="980" as="sourcePoint" />
            <mxPoint x="1460" y="820" as="targetPoint" />
          </mxGeometry>
        </mxCell>
        <mxCell id="TKN5x8VOKqGEZoHQyoC4-46" value="" style="endArrow=diamondThin;endFill=0;endSize=24;html=1;rounded=0;exitX=0.441;exitY=1.004;exitDx=0;exitDy=0;exitPerimeter=0;entryX=0.464;entryY=-0.004;entryDx=0;entryDy=0;entryPerimeter=0;" edge="1" parent="WIyWlLk6GJQsqaUBKTNV-1" source="TKN5x8VOKqGEZoHQyoC4-14" target="TKN5x8VOKqGEZoHQyoC4-40">
          <mxGeometry width="160" relative="1" as="geometry">
            <mxPoint x="1100" y="690" as="sourcePoint" />
            <mxPoint x="1260" y="690" as="targetPoint" />
          </mxGeometry>
        </mxCell>
        <mxCell id="TKN5x8VOKqGEZoHQyoC4-47" value="&amp;lt;&amp;lt;Interface&amp;gt;&amp;gt;&lt;br&gt;MemberRepository" style="swimlane;fontStyle=1;align=center;verticalAlign=top;childLayout=stackLayout;horizontal=1;startSize=40;horizontalStack=0;resizeParent=1;resizeParentMax=0;resizeLast=0;collapsible=1;marginBottom=0;whiteSpace=wrap;html=1;" vertex="1" parent="WIyWlLk6GJQsqaUBKTNV-1">
          <mxGeometry x="790" y="630" width="260" height="104" as="geometry" />
        </mxCell>
        <mxCell id="TKN5x8VOKqGEZoHQyoC4-49" value="" style="line;strokeWidth=1;fillColor=none;align=left;verticalAlign=middle;spacingTop=-1;spacingLeft=3;spacingRight=3;rotatable=0;labelPosition=right;points=[];portConstraint=eastwest;strokeColor=inherit;" vertex="1" parent="TKN5x8VOKqGEZoHQyoC4-47">
          <mxGeometry y="40" width="260" height="8" as="geometry" />
        </mxCell>
        <mxCell id="TKN5x8VOKqGEZoHQyoC4-50" value="+ findByUserId(String) : MemberEntity&lt;div&gt;+ findByUserNm(String) : MemberEntity&lt;/div&gt;" style="text;strokeColor=none;fillColor=none;align=left;verticalAlign=top;spacingLeft=4;spacingRight=4;overflow=hidden;rotatable=0;points=[[0,0.5],[1,0.5]];portConstraint=eastwest;whiteSpace=wrap;html=1;" vertex="1" parent="TKN5x8VOKqGEZoHQyoC4-47">
          <mxGeometry y="48" width="260" height="56" as="geometry" />
        </mxCell>
        <mxCell id="TKN5x8VOKqGEZoHQyoC4-51" value="" style="endArrow=block;dashed=1;endFill=0;endSize=12;html=1;rounded=0;entryX=0.503;entryY=0.98;entryDx=0;entryDy=0;entryPerimeter=0;exitX=0.472;exitY=0.063;exitDx=0;exitDy=0;exitPerimeter=0;" edge="1" parent="WIyWlLk6GJQsqaUBKTNV-1" source="TKN5x8VOKqGEZoHQyoC4-47" target="TKN5x8VOKqGEZoHQyoC4-9">
          <mxGeometry width="160" relative="1" as="geometry">
            <mxPoint x="990" y="590" as="sourcePoint" />
            <mxPoint x="1260" y="580" as="targetPoint" />
          </mxGeometry>
        </mxCell>
        <mxCell id="TKN5x8VOKqGEZoHQyoC4-52" value="" style="endArrow=diamondThin;endFill=0;endSize=24;html=1;rounded=0;exitX=1;exitY=0.5;exitDx=0;exitDy=0;entryX=0;entryY=0.75;entryDx=0;entryDy=0;" edge="1" parent="WIyWlLk6GJQsqaUBKTNV-1" source="TKN5x8VOKqGEZoHQyoC4-47" target="TKN5x8VOKqGEZoHQyoC4-40">
          <mxGeometry width="160" relative="1" as="geometry">
            <mxPoint x="1100" y="580" as="sourcePoint" />
            <mxPoint x="1232.6399999999999" y="959.4280000000003" as="targetPoint" />
            <Array as="points">
              <mxPoint x="1050" y="980" />
            </Array>
          </mxGeometry>
        </mxCell>
        <mxCell id="TKN5x8VOKqGEZoHQyoC4-53" value="&amp;lt;&amp;lt;interface&amp;gt;&amp;gt;&lt;br&gt;ProjectRepository" style="swimlane;fontStyle=1;align=center;verticalAlign=top;childLayout=stackLayout;horizontal=1;startSize=40;horizontalStack=0;resizeParent=1;resizeParentMax=0;resizeLast=0;collapsible=1;marginBottom=0;whiteSpace=wrap;html=1;" vertex="1" parent="WIyWlLk6GJQsqaUBKTNV-1">
          <mxGeometry x="800" y="300" width="230" height="74" as="geometry" />
        </mxCell>
        <mxCell id="TKN5x8VOKqGEZoHQyoC4-55" value="" style="line;strokeWidth=1;fillColor=none;align=left;verticalAlign=middle;spacingTop=-1;spacingLeft=3;spacingRight=3;rotatable=0;labelPosition=right;points=[];portConstraint=eastwest;strokeColor=inherit;" vertex="1" parent="TKN5x8VOKqGEZoHQyoC4-53">
          <mxGeometry y="40" width="230" height="8" as="geometry" />
        </mxCell>
        <mxCell id="TKN5x8VOKqGEZoHQyoC4-56" value="findByProjectNm(String) : ProjectEntity" style="text;strokeColor=none;fillColor=none;align=left;verticalAlign=top;spacingLeft=4;spacingRight=4;overflow=hidden;rotatable=0;points=[[0,0.5],[1,0.5]];portConstraint=eastwest;whiteSpace=wrap;html=1;" vertex="1" parent="TKN5x8VOKqGEZoHQyoC4-53">
          <mxGeometry y="48" width="230" height="26" as="geometry" />
        </mxCell>
        <mxCell id="TKN5x8VOKqGEZoHQyoC4-58" value="" style="endArrow=block;dashed=1;endFill=0;endSize=12;html=1;rounded=0;exitX=0.527;exitY=1.391;exitDx=0;exitDy=0;entryX=0.588;entryY=-0.012;entryDx=0;entryDy=0;exitPerimeter=0;entryPerimeter=0;" edge="1" parent="WIyWlLk6GJQsqaUBKTNV-1" source="TKN5x8VOKqGEZoHQyoC4-56" target="TKN5x8VOKqGEZoHQyoC4-7">
          <mxGeometry width="160" relative="1" as="geometry">
            <mxPoint x="1100" y="580" as="sourcePoint" />
            <mxPoint x="1260" y="580" as="targetPoint" />
          </mxGeometry>
        </mxCell>
        <mxCell id="TKN5x8VOKqGEZoHQyoC4-59" value="" style="endArrow=diamondThin;endFill=0;endSize=24;html=1;rounded=0;entryX=0.729;entryY=-0.005;entryDx=0;entryDy=0;entryPerimeter=0;exitX=0.605;exitY=1.079;exitDx=0;exitDy=0;exitPerimeter=0;" edge="1" parent="WIyWlLk6GJQsqaUBKTNV-1" source="TKN5x8VOKqGEZoHQyoC4-56" target="TKN5x8VOKqGEZoHQyoC4-40">
          <mxGeometry width="160" relative="1" as="geometry">
            <mxPoint x="1100" y="580" as="sourcePoint" />
            <mxPoint x="1260" y="580" as="targetPoint" />
            <Array as="points">
              <mxPoint x="1510" y="376" />
            </Array>
          </mxGeometry>
        </mxCell>
        <mxCell id="TKN5x8VOKqGEZoHQyoC4-60" value="IssueController" style="swimlane;fontStyle=1;align=center;verticalAlign=top;childLayout=stackLayout;horizontal=1;startSize=26;horizontalStack=0;resizeParent=1;resizeParentMax=0;resizeLast=0;collapsible=1;marginBottom=0;whiteSpace=wrap;html=1;" vertex="1" parent="WIyWlLk6GJQsqaUBKTNV-1">
          <mxGeometry x="1700" y="1280" width="450" height="210" as="geometry" />
        </mxCell>
        <mxCell id="TKN5x8VOKqGEZoHQyoC4-62" value="" style="line;strokeWidth=1;fillColor=none;align=left;verticalAlign=middle;spacingTop=-1;spacingLeft=3;spacingRight=3;rotatable=0;labelPosition=right;points=[];portConstraint=eastwest;strokeColor=inherit;" vertex="1" parent="TKN5x8VOKqGEZoHQyoC4-60">
          <mxGeometry y="26" width="450" height="8" as="geometry" />
        </mxCell>
        <mxCell id="TKN5x8VOKqGEZoHQyoC4-63" value="+ createTicket(IssueCreateVo) : ResponseVo&amp;lt;IssueVo&amp;gt;&lt;div&gt;+ findIssueListByUserIdAndState(String, String) : ResponseVo&amp;lt;IssueVo&amp;gt;&lt;/div&gt;&lt;div&gt;+ updateTicket(IssueUpdateVo) : ResponseVo&amp;lt;IssueVo&amp;gt;&lt;/div&gt;&lt;div&gt;+ getIssuesByAssignee(String) : List&amp;lt;IssueVo&amp;gt;&lt;/div&gt;&lt;div&gt;+ recommendAssignee(String) : String&lt;/div&gt;&lt;div&gt;+ getIssuesByProjectName(String) : List&amp;lt;IssueVo&amp;gt;&lt;/div&gt;" style="text;strokeColor=none;fillColor=none;align=left;verticalAlign=top;spacingLeft=4;spacingRight=4;overflow=hidden;rotatable=0;points=[[0,0.5],[1,0.5]];portConstraint=eastwest;whiteSpace=wrap;html=1;" vertex="1" parent="TKN5x8VOKqGEZoHQyoC4-60">
          <mxGeometry y="34" width="450" height="176" as="geometry" />
        </mxCell>
        <mxCell id="TKN5x8VOKqGEZoHQyoC4-65" value="IssueVo" style="swimlane;fontStyle=1;align=center;verticalAlign=top;childLayout=stackLayout;horizontal=1;startSize=26;horizontalStack=0;resizeParent=1;resizeParentMax=0;resizeLast=0;collapsible=1;marginBottom=0;whiteSpace=wrap;html=1;" vertex="1" parent="WIyWlLk6GJQsqaUBKTNV-1">
          <mxGeometry x="2510" y="560" width="160" height="320" as="geometry" />
        </mxCell>
        <mxCell id="TKN5x8VOKqGEZoHQyoC4-66" value="- issueId : int" style="text;strokeColor=none;fillColor=none;align=left;verticalAlign=top;spacingLeft=4;spacingRight=4;overflow=hidden;rotatable=0;points=[[0,0.5],[1,0.5]];portConstraint=eastwest;whiteSpace=wrap;html=1;" vertex="1" parent="TKN5x8VOKqGEZoHQyoC4-65">
          <mxGeometry y="26" width="160" height="26" as="geometry" />
        </mxCell>
        <mxCell id="TKN5x8VOKqGEZoHQyoC4-78" value="- title : String" style="text;strokeColor=none;fillColor=none;align=left;verticalAlign=top;spacingLeft=4;spacingRight=4;overflow=hidden;rotatable=0;points=[[0,0.5],[1,0.5]];portConstraint=eastwest;whiteSpace=wrap;html=1;" vertex="1" parent="TKN5x8VOKqGEZoHQyoC4-65">
          <mxGeometry y="52" width="160" height="26" as="geometry" />
        </mxCell>
        <mxCell id="TKN5x8VOKqGEZoHQyoC4-80" value="- description : String" style="text;strokeColor=none;fillColor=none;align=left;verticalAlign=top;spacingLeft=4;spacingRight=4;overflow=hidden;rotatable=0;points=[[0,0.5],[1,0.5]];portConstraint=eastwest;whiteSpace=wrap;html=1;" vertex="1" parent="TKN5x8VOKqGEZoHQyoC4-65">
          <mxGeometry y="78" width="160" height="26" as="geometry" />
        </mxCell>
        <mxCell id="TKN5x8VOKqGEZoHQyoC4-81" value="- reporter : String" style="text;strokeColor=none;fillColor=none;align=left;verticalAlign=top;spacingLeft=4;spacingRight=4;overflow=hidden;rotatable=0;points=[[0,0.5],[1,0.5]];portConstraint=eastwest;whiteSpace=wrap;html=1;" vertex="1" parent="TKN5x8VOKqGEZoHQyoC4-65">
          <mxGeometry y="104" width="160" height="26" as="geometry" />
        </mxCell>
        <mxCell id="TKN5x8VOKqGEZoHQyoC4-79" value="- date : String" style="text;strokeColor=none;fillColor=none;align=left;verticalAlign=top;spacingLeft=4;spacingRight=4;overflow=hidden;rotatable=0;points=[[0,0.5],[1,0.5]];portConstraint=eastwest;whiteSpace=wrap;html=1;" vertex="1" parent="TKN5x8VOKqGEZoHQyoC4-65">
          <mxGeometry y="130" width="160" height="26" as="geometry" />
        </mxCell>
        <mxCell id="TKN5x8VOKqGEZoHQyoC4-82" value="- fixer : String" style="text;strokeColor=none;fillColor=none;align=left;verticalAlign=top;spacingLeft=4;spacingRight=4;overflow=hidden;rotatable=0;points=[[0,0.5],[1,0.5]];portConstraint=eastwest;whiteSpace=wrap;html=1;" vertex="1" parent="TKN5x8VOKqGEZoHQyoC4-65">
          <mxGeometry y="156" width="160" height="26" as="geometry" />
        </mxCell>
        <mxCell id="TKN5x8VOKqGEZoHQyoC4-83" value="- assignee : String" style="text;strokeColor=none;fillColor=none;align=left;verticalAlign=top;spacingLeft=4;spacingRight=4;overflow=hidden;rotatable=0;points=[[0,0.5],[1,0.5]];portConstraint=eastwest;whiteSpace=wrap;html=1;" vertex="1" parent="TKN5x8VOKqGEZoHQyoC4-65">
          <mxGeometry y="182" width="160" height="26" as="geometry" />
        </mxCell>
        <mxCell id="TKN5x8VOKqGEZoHQyoC4-84" value="- priority : String&lt;span style=&quot;white-space: pre;&quot;&gt;&#x9;&lt;/span&gt;" style="text;strokeColor=none;fillColor=none;align=left;verticalAlign=top;spacingLeft=4;spacingRight=4;overflow=hidden;rotatable=0;points=[[0,0.5],[1,0.5]];portConstraint=eastwest;whiteSpace=wrap;html=1;" vertex="1" parent="TKN5x8VOKqGEZoHQyoC4-65">
          <mxGeometry y="208" width="160" height="26" as="geometry" />
        </mxCell>
        <mxCell id="TKN5x8VOKqGEZoHQyoC4-85" value="- state : String" style="text;strokeColor=none;fillColor=none;align=left;verticalAlign=top;spacingLeft=4;spacingRight=4;overflow=hidden;rotatable=0;points=[[0,0.5],[1,0.5]];portConstraint=eastwest;whiteSpace=wrap;html=1;" vertex="1" parent="TKN5x8VOKqGEZoHQyoC4-65">
          <mxGeometry y="234" width="160" height="26" as="geometry" />
        </mxCell>
        <mxCell id="TKN5x8VOKqGEZoHQyoC4-86" value="- userId : String" style="text;strokeColor=none;fillColor=none;align=left;verticalAlign=top;spacingLeft=4;spacingRight=4;overflow=hidden;rotatable=0;points=[[0,0.5],[1,0.5]];portConstraint=eastwest;whiteSpace=wrap;html=1;" vertex="1" parent="TKN5x8VOKqGEZoHQyoC4-65">
          <mxGeometry y="260" width="160" height="26" as="geometry" />
        </mxCell>
        <mxCell id="TKN5x8VOKqGEZoHQyoC4-87" value="- projectNm : String" style="text;strokeColor=none;fillColor=none;align=left;verticalAlign=top;spacingLeft=4;spacingRight=4;overflow=hidden;rotatable=0;points=[[0,0.5],[1,0.5]];portConstraint=eastwest;whiteSpace=wrap;html=1;" vertex="1" parent="TKN5x8VOKqGEZoHQyoC4-65">
          <mxGeometry y="286" width="160" height="26" as="geometry" />
        </mxCell>
        <mxCell id="TKN5x8VOKqGEZoHQyoC4-67" value="" style="line;strokeWidth=1;fillColor=none;align=left;verticalAlign=middle;spacingTop=-1;spacingLeft=3;spacingRight=3;rotatable=0;labelPosition=right;points=[];portConstraint=eastwest;strokeColor=inherit;" vertex="1" parent="TKN5x8VOKqGEZoHQyoC4-65">
          <mxGeometry y="312" width="160" height="8" as="geometry" />
        </mxCell>
        <mxCell id="TKN5x8VOKqGEZoHQyoC4-69" value="IssueCreateVo" style="swimlane;fontStyle=1;align=center;verticalAlign=top;childLayout=stackLayout;horizontal=1;startSize=26;horizontalStack=0;resizeParent=1;resizeParentMax=0;resizeLast=0;collapsible=1;marginBottom=0;whiteSpace=wrap;html=1;" vertex="1" parent="WIyWlLk6GJQsqaUBKTNV-1">
          <mxGeometry x="2510" y="932" width="160" height="216" as="geometry" />
        </mxCell>
        <mxCell id="TKN5x8VOKqGEZoHQyoC4-70" value="- issueId : int" style="text;strokeColor=none;fillColor=none;align=left;verticalAlign=top;spacingLeft=4;spacingRight=4;overflow=hidden;rotatable=0;points=[[0,0.5],[1,0.5]];portConstraint=eastwest;whiteSpace=wrap;html=1;" vertex="1" parent="TKN5x8VOKqGEZoHQyoC4-69">
          <mxGeometry y="26" width="160" height="26" as="geometry" />
        </mxCell>
        <mxCell id="TKN5x8VOKqGEZoHQyoC4-88" value="- title : String" style="text;strokeColor=none;fillColor=none;align=left;verticalAlign=top;spacingLeft=4;spacingRight=4;overflow=hidden;rotatable=0;points=[[0,0.5],[1,0.5]];portConstraint=eastwest;whiteSpace=wrap;html=1;" vertex="1" parent="TKN5x8VOKqGEZoHQyoC4-69">
          <mxGeometry y="52" width="160" height="26" as="geometry" />
        </mxCell>
        <mxCell id="TKN5x8VOKqGEZoHQyoC4-89" value="- description : String" style="text;strokeColor=none;fillColor=none;align=left;verticalAlign=top;spacingLeft=4;spacingRight=4;overflow=hidden;rotatable=0;points=[[0,0.5],[1,0.5]];portConstraint=eastwest;whiteSpace=wrap;html=1;" vertex="1" parent="TKN5x8VOKqGEZoHQyoC4-69">
          <mxGeometry y="78" width="160" height="26" as="geometry" />
        </mxCell>
        <mxCell id="TKN5x8VOKqGEZoHQyoC4-90" value="- date : String" style="text;strokeColor=none;fillColor=none;align=left;verticalAlign=top;spacingLeft=4;spacingRight=4;overflow=hidden;rotatable=0;points=[[0,0.5],[1,0.5]];portConstraint=eastwest;whiteSpace=wrap;html=1;" vertex="1" parent="TKN5x8VOKqGEZoHQyoC4-69">
          <mxGeometry y="104" width="160" height="26" as="geometry" />
        </mxCell>
        <mxCell id="TKN5x8VOKqGEZoHQyoC4-91" value="- priority : String" style="text;strokeColor=none;fillColor=none;align=left;verticalAlign=top;spacingLeft=4;spacingRight=4;overflow=hidden;rotatable=0;points=[[0,0.5],[1,0.5]];portConstraint=eastwest;whiteSpace=wrap;html=1;" vertex="1" parent="TKN5x8VOKqGEZoHQyoC4-69">
          <mxGeometry y="130" width="160" height="26" as="geometry" />
        </mxCell>
        <mxCell id="TKN5x8VOKqGEZoHQyoC4-92" value="- userId : String" style="text;strokeColor=none;fillColor=none;align=left;verticalAlign=top;spacingLeft=4;spacingRight=4;overflow=hidden;rotatable=0;points=[[0,0.5],[1,0.5]];portConstraint=eastwest;whiteSpace=wrap;html=1;" vertex="1" parent="TKN5x8VOKqGEZoHQyoC4-69">
          <mxGeometry y="156" width="160" height="26" as="geometry" />
        </mxCell>
        <mxCell id="TKN5x8VOKqGEZoHQyoC4-93" value="- projectNm : String" style="text;strokeColor=none;fillColor=none;align=left;verticalAlign=top;spacingLeft=4;spacingRight=4;overflow=hidden;rotatable=0;points=[[0,0.5],[1,0.5]];portConstraint=eastwest;whiteSpace=wrap;html=1;" vertex="1" parent="TKN5x8VOKqGEZoHQyoC4-69">
          <mxGeometry y="182" width="160" height="26" as="geometry" />
        </mxCell>
        <mxCell id="TKN5x8VOKqGEZoHQyoC4-71" value="" style="line;strokeWidth=1;fillColor=none;align=left;verticalAlign=middle;spacingTop=-1;spacingLeft=3;spacingRight=3;rotatable=0;labelPosition=right;points=[];portConstraint=eastwest;strokeColor=inherit;" vertex="1" parent="TKN5x8VOKqGEZoHQyoC4-69">
          <mxGeometry y="208" width="160" height="8" as="geometry" />
        </mxCell>
        <mxCell id="TKN5x8VOKqGEZoHQyoC4-73" value="IssueUpdateVo" style="swimlane;fontStyle=1;align=center;verticalAlign=top;childLayout=stackLayout;horizontal=1;startSize=26;horizontalStack=0;resizeParent=1;resizeParentMax=0;resizeLast=0;collapsible=1;marginBottom=0;whiteSpace=wrap;html=1;" vertex="1" parent="WIyWlLk6GJQsqaUBKTNV-1">
          <mxGeometry x="2510" y="1194" width="160" height="148" as="geometry" />
        </mxCell>
        <mxCell id="TKN5x8VOKqGEZoHQyoC4-74" value="- title : String&lt;div&gt;- description : String&lt;/div&gt;&lt;div&gt;- date : String&lt;/div&gt;&lt;div&gt;- assignee : String&lt;/div&gt;&lt;div&gt;- priority : String&lt;/div&gt;&lt;div&gt;- state : String&lt;/div&gt;&lt;div&gt;- projectNm : String&lt;/div&gt;" style="text;strokeColor=none;fillColor=none;align=left;verticalAlign=top;spacingLeft=4;spacingRight=4;overflow=hidden;rotatable=0;points=[[0,0.5],[1,0.5]];portConstraint=eastwest;whiteSpace=wrap;html=1;" vertex="1" parent="TKN5x8VOKqGEZoHQyoC4-73">
          <mxGeometry y="26" width="160" height="114" as="geometry" />
        </mxCell>
        <mxCell id="TKN5x8VOKqGEZoHQyoC4-75" value="" style="line;strokeWidth=1;fillColor=none;align=left;verticalAlign=middle;spacingTop=-1;spacingLeft=3;spacingRight=3;rotatable=0;labelPosition=right;points=[];portConstraint=eastwest;strokeColor=inherit;" vertex="1" parent="TKN5x8VOKqGEZoHQyoC4-73">
          <mxGeometry y="140" width="160" height="8" as="geometry" />
        </mxCell>
        <mxCell id="TKN5x8VOKqGEZoHQyoC4-94" value="Use" style="endArrow=open;endSize=12;dashed=1;html=1;rounded=0;exitX=1.011;exitY=-0.058;exitDx=0;exitDy=0;exitPerimeter=0;entryX=-0.015;entryY=0.033;entryDx=0;entryDy=0;entryPerimeter=0;" edge="1" parent="WIyWlLk6GJQsqaUBKTNV-1" source="TKN5x8VOKqGEZoHQyoC4-37" target="TKN5x8VOKqGEZoHQyoC4-65">
          <mxGeometry width="160" relative="1" as="geometry">
            <mxPoint x="1930" y="1010" as="sourcePoint" />
            <mxPoint x="2090" y="1010" as="targetPoint" />
          </mxGeometry>
        </mxCell>
        <mxCell id="TKN5x8VOKqGEZoHQyoC4-95" value="Use" style="endArrow=open;endSize=12;dashed=1;html=1;rounded=0;entryX=-0.035;entryY=0.212;entryDx=0;entryDy=0;entryPerimeter=0;exitX=1.003;exitY=0.903;exitDx=0;exitDy=0;exitPerimeter=0;" edge="1" parent="WIyWlLk6GJQsqaUBKTNV-1" source="TKN5x8VOKqGEZoHQyoC4-37" target="TKN5x8VOKqGEZoHQyoC4-74">
          <mxGeometry width="160" relative="1" as="geometry">
            <mxPoint x="1930" y="1010" as="sourcePoint" />
            <mxPoint x="2090" y="1010" as="targetPoint" />
          </mxGeometry>
        </mxCell>
        <mxCell id="TKN5x8VOKqGEZoHQyoC4-96" value="Use" style="endArrow=open;endSize=12;dashed=1;html=1;rounded=0;entryX=-0.022;entryY=0.051;entryDx=0;entryDy=0;entryPerimeter=0;exitX=1;exitY=0.5;exitDx=0;exitDy=0;" edge="1" parent="WIyWlLk6GJQsqaUBKTNV-1" source="TKN5x8VOKqGEZoHQyoC4-37" target="TKN5x8VOKqGEZoHQyoC4-69">
          <mxGeometry width="160" relative="1" as="geometry">
            <mxPoint x="1930" y="1010" as="sourcePoint" />
            <mxPoint x="2090" y="1010" as="targetPoint" />
          </mxGeometry>
        </mxCell>
        <mxCell id="TKN5x8VOKqGEZoHQyoC4-97" value="Use" style="endArrow=open;endSize=12;dashed=1;html=1;rounded=0;entryX=-0.035;entryY=0.212;entryDx=0;entryDy=0;entryPerimeter=0;exitX=1.004;exitY=-0.014;exitDx=0;exitDy=0;exitPerimeter=0;" edge="1" parent="WIyWlLk6GJQsqaUBKTNV-1" source="TKN5x8VOKqGEZoHQyoC4-63">
          <mxGeometry width="160" relative="1" as="geometry">
            <mxPoint x="2111" y="1029" as="sourcePoint" />
            <mxPoint x="2514" y="1254" as="targetPoint" />
          </mxGeometry>
        </mxCell>
        <mxCell id="TKN5x8VOKqGEZoHQyoC4-98" value="Use" style="endArrow=open;endSize=12;dashed=1;html=1;rounded=0;entryX=-0.022;entryY=0.051;entryDx=0;entryDy=0;entryPerimeter=0;exitX=1.011;exitY=0.381;exitDx=0;exitDy=0;exitPerimeter=0;" edge="1" parent="WIyWlLk6GJQsqaUBKTNV-1" source="TKN5x8VOKqGEZoHQyoC4-63">
          <mxGeometry width="160" relative="1" as="geometry">
            <mxPoint x="2110" y="983" as="sourcePoint" />
            <mxPoint x="2516" y="953" as="targetPoint" />
          </mxGeometry>
        </mxCell>
        <mxCell id="TKN5x8VOKqGEZoHQyoC4-100" value="Use" style="endArrow=open;endSize=12;dashed=1;html=1;rounded=0;exitX=1;exitY=0;exitDx=0;exitDy=0;entryX=-0.015;entryY=0.033;entryDx=0;entryDy=0;entryPerimeter=0;" edge="1" parent="WIyWlLk6GJQsqaUBKTNV-1" source="TKN5x8VOKqGEZoHQyoC4-60">
          <mxGeometry width="160" relative="1" as="geometry">
            <mxPoint x="2114" y="919" as="sourcePoint" />
            <mxPoint x="2518" y="581" as="targetPoint" />
          </mxGeometry>
        </mxCell>
        <mxCell id="TKN5x8VOKqGEZoHQyoC4-101" value="" style="endArrow=block;dashed=1;endFill=0;endSize=12;html=1;rounded=0;exitX=1;exitY=0.5;exitDx=0;exitDy=0;entryX=0.035;entryY=0.47;entryDx=0;entryDy=0;entryPerimeter=0;" edge="1" parent="WIyWlLk6GJQsqaUBKTNV-1" source="TKN5x8VOKqGEZoHQyoC4-3" target="TKN5x8VOKqGEZoHQyoC4-7">
          <mxGeometry width="160" relative="1" as="geometry">
            <mxPoint x="960" y="630" as="sourcePoint" />
            <mxPoint x="1120" y="630" as="targetPoint" />
          </mxGeometry>
        </mxCell>
        <mxCell id="TKN5x8VOKqGEZoHQyoC4-102" value="«interface»&lt;br&gt;CommentService" style="swimlane;fontStyle=0;childLayout=stackLayout;horizontal=1;startSize=26;fillColor=none;horizontalStack=0;resizeParent=1;resizeParentMax=0;resizeLast=0;collapsible=1;marginBottom=0;whiteSpace=wrap;html=1;" vertex="1" parent="WIyWlLk6GJQsqaUBKTNV-1">
          <mxGeometry x="-430" y="918" width="390" height="50" as="geometry" />
        </mxCell>
        <mxCell id="TKN5x8VOKqGEZoHQyoC4-103" value="+ insertComment(CommentVo) : ResponseVo" style="text;strokeColor=none;fillColor=none;align=left;verticalAlign=top;spacingLeft=4;spacingRight=4;overflow=hidden;rotatable=0;points=[[0,0.5],[1,0.5]];portConstraint=eastwest;whiteSpace=wrap;html=1;" vertex="1" parent="TKN5x8VOKqGEZoHQyoC4-102">
          <mxGeometry y="26" width="390" height="24" as="geometry" />
        </mxCell>
        <mxCell id="TKN5x8VOKqGEZoHQyoC4-104" value="CommentServiceImpl" style="swimlane;fontStyle=1;align=center;verticalAlign=top;childLayout=stackLayout;horizontal=1;startSize=26;horizontalStack=0;resizeParent=1;resizeParentMax=0;resizeLast=0;collapsible=1;marginBottom=0;whiteSpace=wrap;html=1;" vertex="1" parent="WIyWlLk6GJQsqaUBKTNV-1">
          <mxGeometry x="170" y="932" width="320" height="46" as="geometry" />
        </mxCell>
        <mxCell id="TKN5x8VOKqGEZoHQyoC4-105" value="" style="line;strokeWidth=1;fillColor=none;align=left;verticalAlign=middle;spacingTop=-1;spacingLeft=3;spacingRight=3;rotatable=0;labelPosition=right;points=[];portConstraint=eastwest;strokeColor=inherit;" vertex="1" parent="TKN5x8VOKqGEZoHQyoC4-104">
          <mxGeometry y="26" width="320" height="20" as="geometry" />
        </mxCell>
        <mxCell id="TKN5x8VOKqGEZoHQyoC4-106" value="" style="endArrow=block;dashed=1;endFill=0;endSize=12;html=1;rounded=0;exitX=0;exitY=0.5;exitDx=0;exitDy=0;entryX=1.017;entryY=-0.029;entryDx=0;entryDy=0;entryPerimeter=0;" edge="1" parent="WIyWlLk6GJQsqaUBKTNV-1" source="TKN5x8VOKqGEZoHQyoC4-104" target="TKN5x8VOKqGEZoHQyoC4-103">
          <mxGeometry width="160" relative="1" as="geometry">
            <mxPoint x="780" y="740" as="sourcePoint" />
            <mxPoint x="940" y="740" as="targetPoint" />
          </mxGeometry>
        </mxCell>
        <mxCell id="TKN5x8VOKqGEZoHQyoC4-107" value="" style="endArrow=diamondThin;endFill=0;endSize=24;html=1;rounded=0;entryX=1;entryY=0.5;entryDx=0;entryDy=0;exitX=0.47;exitY=0.945;exitDx=0;exitDy=0;exitPerimeter=0;" edge="1" parent="WIyWlLk6GJQsqaUBKTNV-1" source="TKN5x8VOKqGEZoHQyoC4-56" target="TKN5x8VOKqGEZoHQyoC4-104">
          <mxGeometry width="160" relative="1" as="geometry">
            <mxPoint x="1159" y="786" as="sourcePoint" />
            <mxPoint x="1273" y="943" as="targetPoint" />
          </mxGeometry>
        </mxCell>
        <mxCell id="TKN5x8VOKqGEZoHQyoC4-108" value="" style="endArrow=diamondThin;endFill=0;endSize=24;html=1;rounded=0;exitX=0.001;exitY=0.103;exitDx=0;exitDy=0;entryX=1;entryY=0.75;entryDx=0;entryDy=0;exitPerimeter=0;" edge="1" parent="WIyWlLk6GJQsqaUBKTNV-1" source="TKN5x8VOKqGEZoHQyoC4-50" target="TKN5x8VOKqGEZoHQyoC4-104">
          <mxGeometry width="160" relative="1" as="geometry">
            <mxPoint x="1050" y="965" as="sourcePoint" />
            <mxPoint x="1260" y="977" as="targetPoint" />
          </mxGeometry>
        </mxCell>
        <mxCell id="TKN5x8VOKqGEZoHQyoC4-109" value="" style="endArrow=diamondThin;endFill=0;endSize=24;html=1;rounded=0;exitX=0.399;exitY=1.025;exitDx=0;exitDy=0;exitPerimeter=0;entryX=1;entryY=0;entryDx=0;entryDy=0;" edge="1" parent="WIyWlLk6GJQsqaUBKTNV-1" source="TKN5x8VOKqGEZoHQyoC4-14" target="TKN5x8VOKqGEZoHQyoC4-104">
          <mxGeometry width="160" relative="1" as="geometry">
            <mxPoint x="1352" y="562" as="sourcePoint" />
            <mxPoint x="1408" y="942" as="targetPoint" />
            <Array as="points">
              <mxPoint x="1100" y="650" />
            </Array>
          </mxGeometry>
        </mxCell>
        <mxCell id="TKN5x8VOKqGEZoHQyoC4-110" value="" style="endArrow=diamondThin;endFill=0;endSize=24;html=1;rounded=0;entryX=0.918;entryY=-0.001;entryDx=0;entryDy=0;entryPerimeter=0;exitX=0.5;exitY=1;exitDx=0;exitDy=0;" edge="1" parent="WIyWlLk6GJQsqaUBKTNV-1" source="TKN5x8VOKqGEZoHQyoC4-3" target="TKN5x8VOKqGEZoHQyoC4-104">
          <mxGeometry width="160" relative="1" as="geometry">
            <mxPoint x="520" y="530" as="sourcePoint" />
            <mxPoint x="630" y="930" as="targetPoint" />
          </mxGeometry>
        </mxCell>
        <mxCell id="TKN5x8VOKqGEZoHQyoC4-111" value="CommentCotroller" style="swimlane;fontStyle=1;align=center;verticalAlign=top;childLayout=stackLayout;horizontal=1;startSize=26;horizontalStack=0;resizeParent=1;resizeParentMax=0;resizeLast=0;collapsible=1;marginBottom=0;whiteSpace=wrap;html=1;" vertex="1" parent="WIyWlLk6GJQsqaUBKTNV-1">
          <mxGeometry x="-410" y="1120" width="400" height="60" as="geometry" />
        </mxCell>
        <mxCell id="TKN5x8VOKqGEZoHQyoC4-113" value="" style="line;strokeWidth=1;fillColor=none;align=left;verticalAlign=middle;spacingTop=-1;spacingLeft=3;spacingRight=3;rotatable=0;labelPosition=right;points=[];portConstraint=eastwest;strokeColor=inherit;" vertex="1" parent="TKN5x8VOKqGEZoHQyoC4-111">
          <mxGeometry y="26" width="400" height="8" as="geometry" />
        </mxCell>
        <mxCell id="TKN5x8VOKqGEZoHQyoC4-114" value="createComment(CommentVo) : ResponseVo" style="text;strokeColor=none;fillColor=none;align=left;verticalAlign=top;spacingLeft=4;spacingRight=4;overflow=hidden;rotatable=0;points=[[0,0.5],[1,0.5]];portConstraint=eastwest;whiteSpace=wrap;html=1;" vertex="1" parent="TKN5x8VOKqGEZoHQyoC4-111">
          <mxGeometry y="34" width="400" height="26" as="geometry" />
        </mxCell>
        <mxCell id="TKN5x8VOKqGEZoHQyoC4-64" value="" style="endArrow=diamondThin;endFill=0;endSize=24;html=1;rounded=0;exitX=0.566;exitY=1.041;exitDx=0;exitDy=0;exitPerimeter=0;entryX=0.5;entryY=0;entryDx=0;entryDy=0;" edge="1" parent="WIyWlLk6GJQsqaUBKTNV-1" source="TKN5x8VOKqGEZoHQyoC4-37" target="TKN5x8VOKqGEZoHQyoC4-60">
          <mxGeometry width="160" relative="1" as="geometry">
            <mxPoint x="1100" y="900" as="sourcePoint" />
            <mxPoint x="1260" y="900" as="targetPoint" />
          </mxGeometry>
        </mxCell>
        <mxCell id="TKN5x8VOKqGEZoHQyoC4-115" value="" style="endArrow=diamondThin;endFill=0;endSize=24;html=1;rounded=0;entryX=0.55;entryY=0.036;entryDx=0;entryDy=0;entryPerimeter=0;exitX=0.643;exitY=0.888;exitDx=0;exitDy=0;exitPerimeter=0;" edge="1" parent="WIyWlLk6GJQsqaUBKTNV-1" source="TKN5x8VOKqGEZoHQyoC4-103" target="TKN5x8VOKqGEZoHQyoC4-111">
          <mxGeometry width="160" relative="1" as="geometry">
            <mxPoint x="530" y="540" as="sourcePoint" />
            <mxPoint x="604" y="930" as="targetPoint" />
          </mxGeometry>
        </mxCell>
        <mxCell id="TKN5x8VOKqGEZoHQyoC4-116" value="CommentVo" style="swimlane;fontStyle=1;align=center;verticalAlign=top;childLayout=stackLayout;horizontal=1;startSize=26;horizontalStack=0;resizeParent=1;resizeParentMax=0;resizeLast=0;collapsible=1;marginBottom=0;whiteSpace=wrap;html=1;" vertex="1" parent="WIyWlLk6GJQsqaUBKTNV-1">
          <mxGeometry x="-750" y="912" width="160" height="208" as="geometry" />
        </mxCell>
        <mxCell id="TKN5x8VOKqGEZoHQyoC4-117" value="- content : String&lt;div&gt;- date : String&lt;/div&gt;&lt;div&gt;- userId : String&lt;/div&gt;&lt;div&gt;- issueTitle : String&lt;/div&gt;&lt;div&gt;- projectNm : String&lt;/div&gt;" style="text;strokeColor=none;fillColor=none;align=left;verticalAlign=top;spacingLeft=4;spacingRight=4;overflow=hidden;rotatable=0;points=[[0,0.5],[1,0.5]];portConstraint=eastwest;whiteSpace=wrap;html=1;" vertex="1" parent="TKN5x8VOKqGEZoHQyoC4-116">
          <mxGeometry y="26" width="160" height="174" as="geometry" />
        </mxCell>
        <mxCell id="TKN5x8VOKqGEZoHQyoC4-118" value="" style="line;strokeWidth=1;fillColor=none;align=left;verticalAlign=middle;spacingTop=-1;spacingLeft=3;spacingRight=3;rotatable=0;labelPosition=right;points=[];portConstraint=eastwest;strokeColor=inherit;" vertex="1" parent="TKN5x8VOKqGEZoHQyoC4-116">
          <mxGeometry y="200" width="160" height="8" as="geometry" />
        </mxCell>
        <mxCell id="TKN5x8VOKqGEZoHQyoC4-120" value="Use" style="endArrow=open;endSize=12;dashed=1;html=1;rounded=0;exitX=-0.016;exitY=0.713;exitDx=0;exitDy=0;exitPerimeter=0;entryX=0.975;entryY=0.129;entryDx=0;entryDy=0;entryPerimeter=0;" edge="1" parent="WIyWlLk6GJQsqaUBKTNV-1" source="TKN5x8VOKqGEZoHQyoC4-103" target="TKN5x8VOKqGEZoHQyoC4-117">
          <mxGeometry width="160" relative="1" as="geometry">
            <mxPoint x="20" y="910" as="sourcePoint" />
            <mxPoint x="180" y="910" as="targetPoint" />
          </mxGeometry>
        </mxCell>
        <mxCell id="TKN5x8VOKqGEZoHQyoC4-121" value="Use" style="endArrow=open;endSize=12;dashed=1;html=1;rounded=0;exitX=0;exitY=0.25;exitDx=0;exitDy=0;entryX=1;entryY=0.5;entryDx=0;entryDy=0;" edge="1" parent="WIyWlLk6GJQsqaUBKTNV-1" source="TKN5x8VOKqGEZoHQyoC4-111" target="TKN5x8VOKqGEZoHQyoC4-117">
          <mxGeometry width="160" relative="1" as="geometry">
            <mxPoint x="-276" y="973" as="sourcePoint" />
            <mxPoint x="-414" y="978" as="targetPoint" />
          </mxGeometry>
        </mxCell>
        <mxCell id="TKN5x8VOKqGEZoHQyoC4-122" value="CommentEntity" style="swimlane;fontStyle=0;childLayout=stackLayout;horizontal=1;startSize=26;fillColor=none;horizontalStack=0;resizeParent=1;resizeParentMax=0;resizeLast=0;collapsible=1;marginBottom=0;whiteSpace=wrap;html=1;" vertex="1" parent="WIyWlLk6GJQsqaUBKTNV-1">
          <mxGeometry x="170" y="470" width="170" height="130" as="geometry" />
        </mxCell>
        <mxCell id="TKN5x8VOKqGEZoHQyoC4-123" value="- commentId : int&lt;div&gt;- content : String&lt;/div&gt;&lt;div&gt;- date : String&lt;/div&gt;&lt;div&gt;- projectId : ProjectEntity&lt;/div&gt;&lt;div&gt;- memberId : MemberEntity&lt;/div&gt;&lt;div&gt;- issueId : IssueEntity&lt;/div&gt;" style="text;strokeColor=none;fillColor=none;align=left;verticalAlign=top;spacingLeft=4;spacingRight=4;overflow=hidden;rotatable=0;points=[[0,0.5],[1,0.5]];portConstraint=eastwest;whiteSpace=wrap;html=1;" vertex="1" parent="TKN5x8VOKqGEZoHQyoC4-122">
          <mxGeometry y="26" width="170" height="104" as="geometry" />
        </mxCell>
        <mxCell id="TKN5x8VOKqGEZoHQyoC4-127" value="Use" style="endArrow=open;endSize=12;dashed=1;html=1;rounded=0;exitX=0.608;exitY=1.03;exitDx=0;exitDy=0;exitPerimeter=0;entryX=0.277;entryY=-0.001;entryDx=0;entryDy=0;entryPerimeter=0;" edge="1" parent="WIyWlLk6GJQsqaUBKTNV-1" source="TKN5x8VOKqGEZoHQyoC4-123" target="TKN5x8VOKqGEZoHQyoC4-104">
          <mxGeometry width="160" relative="1" as="geometry">
            <mxPoint x="530" y="590" as="sourcePoint" />
            <mxPoint x="690" y="590" as="targetPoint" />
          </mxGeometry>
        </mxCell>
        <mxCell id="TKN5x8VOKqGEZoHQyoC4-128" value="ProjectEntity" style="swimlane;fontStyle=0;childLayout=stackLayout;horizontal=1;startSize=26;fillColor=none;horizontalStack=0;resizeParent=1;resizeParentMax=0;resizeLast=0;collapsible=1;marginBottom=0;whiteSpace=wrap;html=1;" vertex="1" parent="WIyWlLk6GJQsqaUBKTNV-1">
          <mxGeometry x="780" y="120" width="260" height="120" as="geometry" />
        </mxCell>
        <mxCell id="TKN5x8VOKqGEZoHQyoC4-129" value="- projectId : int&lt;div&gt;- projectNm : String&lt;/div&gt;&lt;div&gt;- projectDesc : String&lt;/div&gt;&lt;div&gt;- memberEntities : List&amp;lt;MemberEntitiy&amp;gt;&lt;/div&gt;&lt;div&gt;- issueEntities : List&amp;lt;IssueEntitiy&amp;gt;&lt;/div&gt;&lt;div&gt;- commentEntities : List&amp;lt;CommentEntity&amp;gt;&lt;/div&gt;" style="text;strokeColor=none;fillColor=none;align=left;verticalAlign=top;spacingLeft=4;spacingRight=4;overflow=hidden;rotatable=0;points=[[0,0.5],[1,0.5]];portConstraint=eastwest;whiteSpace=wrap;html=1;" vertex="1" parent="TKN5x8VOKqGEZoHQyoC4-128">
          <mxGeometry y="26" width="260" height="94" as="geometry" />
        </mxCell>
        <mxCell id="TKN5x8VOKqGEZoHQyoC4-141" value="&amp;lt;&amp;lt;interface&amp;gt;&amp;gt;&lt;br&gt;MemberService" style="swimlane;fontStyle=0;childLayout=stackLayout;horizontal=1;startSize=26;fillColor=none;horizontalStack=0;resizeParent=1;resizeParentMax=0;resizeLast=0;collapsible=1;marginBottom=0;whiteSpace=wrap;html=1;" vertex="1" parent="WIyWlLk6GJQsqaUBKTNV-1">
          <mxGeometry x="800" y="1300" width="310" height="90" as="geometry" />
        </mxCell>
        <mxCell id="TKN5x8VOKqGEZoHQyoC4-142" value="+ insertMember(MemberVo) : ResponseVo&lt;div&gt;+ updateMember(MemberVo) : ResponseVo&lt;/div&gt;&lt;div&gt;+ login(MemberVo) : ResponseVo&lt;/div&gt;" style="text;strokeColor=none;fillColor=none;align=left;verticalAlign=top;spacingLeft=4;spacingRight=4;overflow=hidden;rotatable=0;points=[[0,0.5],[1,0.5]];portConstraint=eastwest;whiteSpace=wrap;html=1;" vertex="1" parent="TKN5x8VOKqGEZoHQyoC4-141">
          <mxGeometry y="26" width="310" height="64" as="geometry" />
        </mxCell>
        <mxCell id="TKN5x8VOKqGEZoHQyoC4-145" value="MemberServiceImpl" style="swimlane;fontStyle=1;align=center;verticalAlign=top;childLayout=stackLayout;horizontal=1;startSize=26;horizontalStack=0;resizeParent=1;resizeParentMax=0;resizeLast=0;collapsible=1;marginBottom=0;whiteSpace=wrap;html=1;" vertex="1" parent="WIyWlLk6GJQsqaUBKTNV-1">
          <mxGeometry x="795" y="1194" width="320" height="46" as="geometry" />
        </mxCell>
        <mxCell id="TKN5x8VOKqGEZoHQyoC4-146" value="" style="line;strokeWidth=1;fillColor=none;align=left;verticalAlign=middle;spacingTop=-1;spacingLeft=3;spacingRight=3;rotatable=0;labelPosition=right;points=[];portConstraint=eastwest;strokeColor=inherit;" vertex="1" parent="TKN5x8VOKqGEZoHQyoC4-145">
          <mxGeometry y="26" width="320" height="20" as="geometry" />
        </mxCell>
        <mxCell id="TKN5x8VOKqGEZoHQyoC4-147" value="" style="endArrow=diamondThin;endFill=0;endSize=24;html=1;rounded=0;entryX=0.5;entryY=0;entryDx=0;entryDy=0;" edge="1" parent="WIyWlLk6GJQsqaUBKTNV-1" source="TKN5x8VOKqGEZoHQyoC4-50" target="TKN5x8VOKqGEZoHQyoC4-145">
          <mxGeometry width="160" relative="1" as="geometry">
            <mxPoint x="890" y="740" as="sourcePoint" />
            <mxPoint x="1050" y="740" as="targetPoint" />
          </mxGeometry>
        </mxCell>
        <mxCell id="TKN5x8VOKqGEZoHQyoC4-148" value="" style="endArrow=diamondThin;endFill=0;endSize=24;html=1;rounded=0;exitX=0.859;exitY=1.055;exitDx=0;exitDy=0;exitPerimeter=0;" edge="1" parent="WIyWlLk6GJQsqaUBKTNV-1" source="TKN5x8VOKqGEZoHQyoC4-129" target="TKN5x8VOKqGEZoHQyoC4-145">
          <mxGeometry width="160" relative="1" as="geometry">
            <mxPoint x="890" y="740" as="sourcePoint" />
            <mxPoint x="1050" y="740" as="targetPoint" />
          </mxGeometry>
        </mxCell>
        <mxCell id="TKN5x8VOKqGEZoHQyoC4-149" value="" style="endArrow=block;dashed=1;endFill=0;endSize=12;html=1;rounded=0;entryX=0.605;entryY=-0.008;entryDx=0;entryDy=0;entryPerimeter=0;exitX=0.595;exitY=0.787;exitDx=0;exitDy=0;exitPerimeter=0;" edge="1" parent="WIyWlLk6GJQsqaUBKTNV-1" source="TKN5x8VOKqGEZoHQyoC4-146" target="TKN5x8VOKqGEZoHQyoC4-141">
          <mxGeometry width="160" relative="1" as="geometry">
            <mxPoint x="890" y="950" as="sourcePoint" />
            <mxPoint x="1050" y="950" as="targetPoint" />
          </mxGeometry>
        </mxCell>
        <mxCell id="TKN5x8VOKqGEZoHQyoC4-150" value="MemberController" style="swimlane;fontStyle=1;align=center;verticalAlign=top;childLayout=stackLayout;horizontal=1;startSize=26;horizontalStack=0;resizeParent=1;resizeParentMax=0;resizeLast=0;collapsible=1;marginBottom=0;whiteSpace=wrap;html=1;" vertex="1" parent="WIyWlLk6GJQsqaUBKTNV-1">
          <mxGeometry x="740" y="1530" width="450" height="210" as="geometry" />
        </mxCell>
        <mxCell id="TKN5x8VOKqGEZoHQyoC4-151" value="" style="line;strokeWidth=1;fillColor=none;align=left;verticalAlign=middle;spacingTop=-1;spacingLeft=3;spacingRight=3;rotatable=0;labelPosition=right;points=[];portConstraint=eastwest;strokeColor=inherit;" vertex="1" parent="TKN5x8VOKqGEZoHQyoC4-150">
          <mxGeometry y="26" width="450" height="8" as="geometry" />
        </mxCell>
        <mxCell id="TKN5x8VOKqGEZoHQyoC4-152" value="+ insertMember(MemberVo) : ResonseVo&lt;div&gt;+ updateMember(MemberVo) : ResponseVo&lt;/div&gt;&lt;div&gt;+ login(MemberVo) : ResponseVo&lt;/div&gt;" style="text;strokeColor=none;fillColor=none;align=left;verticalAlign=top;spacingLeft=4;spacingRight=4;overflow=hidden;rotatable=0;points=[[0,0.5],[1,0.5]];portConstraint=eastwest;whiteSpace=wrap;html=1;" vertex="1" parent="TKN5x8VOKqGEZoHQyoC4-150">
          <mxGeometry y="34" width="450" height="176" as="geometry" />
        </mxCell>
        <mxCell id="TKN5x8VOKqGEZoHQyoC4-153" value="" style="endArrow=diamondThin;endFill=0;endSize=24;html=1;rounded=0;entryX=0.583;entryY=0.022;entryDx=0;entryDy=0;entryPerimeter=0;exitX=0.585;exitY=1.018;exitDx=0;exitDy=0;exitPerimeter=0;" edge="1" parent="WIyWlLk6GJQsqaUBKTNV-1" source="TKN5x8VOKqGEZoHQyoC4-142" target="TKN5x8VOKqGEZoHQyoC4-150">
          <mxGeometry width="160" relative="1" as="geometry">
            <mxPoint x="1050" y="1300" as="sourcePoint" />
            <mxPoint x="1210" y="1300" as="targetPoint" />
          </mxGeometry>
        </mxCell>
        <mxCell id="TKN5x8VOKqGEZoHQyoC4-154" value="MemberVo" style="swimlane;fontStyle=1;align=center;verticalAlign=top;childLayout=stackLayout;horizontal=1;startSize=26;horizontalStack=0;resizeParent=1;resizeParentMax=0;resizeLast=0;collapsible=1;marginBottom=0;whiteSpace=wrap;html=1;" vertex="1" parent="WIyWlLk6GJQsqaUBKTNV-1">
          <mxGeometry x="860" y="1840" width="160" height="188" as="geometry" />
        </mxCell>
        <mxCell id="TKN5x8VOKqGEZoHQyoC4-155" value="- memberId : int&lt;div&gt;- userId : String&lt;/div&gt;&lt;div&gt;- userNm : String&lt;/div&gt;&lt;div&gt;- userPwd : String&lt;/div&gt;&lt;div&gt;- userChkPwd : String&lt;/div&gt;&lt;div&gt;- userRoles :&amp;nbsp;&lt;span style=&quot;background-color: initial;&quot;&gt;String&lt;/span&gt;&lt;/div&gt;&lt;div&gt;&lt;span style=&quot;background-color: initial;&quot;&gt;- nickNm :&amp;nbsp;&lt;/span&gt;&lt;span style=&quot;background-color: initial;&quot;&gt;String&lt;/span&gt;&lt;/div&gt;&lt;div&gt;- email :&amp;nbsp;&lt;span style=&quot;background-color: initial;&quot;&gt;String&lt;/span&gt;&lt;/div&gt;&lt;div&gt;&lt;span style=&quot;background-color: initial;&quot;&gt;- projectNm :&amp;nbsp;&lt;/span&gt;&lt;span style=&quot;background-color: initial;&quot;&gt;String&lt;/span&gt;&lt;/div&gt;" style="text;strokeColor=none;fillColor=none;align=left;verticalAlign=top;spacingLeft=4;spacingRight=4;overflow=hidden;rotatable=0;points=[[0,0.5],[1,0.5]];portConstraint=eastwest;whiteSpace=wrap;html=1;" vertex="1" parent="TKN5x8VOKqGEZoHQyoC4-154">
          <mxGeometry y="26" width="160" height="154" as="geometry" />
        </mxCell>
        <mxCell id="TKN5x8VOKqGEZoHQyoC4-156" value="" style="line;strokeWidth=1;fillColor=none;align=left;verticalAlign=middle;spacingTop=-1;spacingLeft=3;spacingRight=3;rotatable=0;labelPosition=right;points=[];portConstraint=eastwest;strokeColor=inherit;" vertex="1" parent="TKN5x8VOKqGEZoHQyoC4-154">
          <mxGeometry y="180" width="160" height="8" as="geometry" />
        </mxCell>
        <mxCell id="TKN5x8VOKqGEZoHQyoC4-158" value="Use" style="endArrow=open;endSize=12;dashed=1;html=1;rounded=0;exitX=0.496;exitY=1.018;exitDx=0;exitDy=0;exitPerimeter=0;entryX=0.633;entryY=0.005;entryDx=0;entryDy=0;entryPerimeter=0;" edge="1" parent="WIyWlLk6GJQsqaUBKTNV-1" source="TKN5x8VOKqGEZoHQyoC4-152" target="TKN5x8VOKqGEZoHQyoC4-154">
          <mxGeometry width="160" relative="1" as="geometry">
            <mxPoint x="970" y="1610" as="sourcePoint" />
            <mxPoint x="1130" y="1610" as="targetPoint" />
          </mxGeometry>
        </mxCell>
        <mxCell id="TKN5x8VOKqGEZoHQyoC4-159" value="Use" style="endArrow=open;endSize=12;dashed=1;html=1;rounded=0;entryX=0.948;entryY=0.028;entryDx=0;entryDy=0;entryPerimeter=0;" edge="1" parent="WIyWlLk6GJQsqaUBKTNV-1" source="TKN5x8VOKqGEZoHQyoC4-142" target="TKN5x8VOKqGEZoHQyoC4-154">
          <mxGeometry width="160" relative="1" as="geometry">
            <mxPoint x="973" y="1753" as="sourcePoint" />
            <mxPoint x="971" y="1851" as="targetPoint" />
            <Array as="points">
              <mxPoint x="1340" y="1400" />
              <mxPoint x="1340" y="1860" />
            </Array>
          </mxGeometry>
        </mxCell>
        <mxCell id="TKN5x8VOKqGEZoHQyoC4-160" value="&amp;lt;&amp;lt;interface&amp;gt;&amp;gt;&lt;br&gt;ProjectService" style="swimlane;fontStyle=0;childLayout=stackLayout;horizontal=1;startSize=26;fillColor=none;horizontalStack=0;resizeParent=1;resizeParentMax=0;resizeLast=0;collapsible=1;marginBottom=0;whiteSpace=wrap;html=1;" vertex="1" parent="WIyWlLk6GJQsqaUBKTNV-1">
          <mxGeometry x="755" y="-60" width="310" height="60" as="geometry" />
        </mxCell>
        <mxCell id="TKN5x8VOKqGEZoHQyoC4-161" value="+ insertProject(ProjectVo) : ResponseVo" style="text;strokeColor=none;fillColor=none;align=left;verticalAlign=top;spacingLeft=4;spacingRight=4;overflow=hidden;rotatable=0;points=[[0,0.5],[1,0.5]];portConstraint=eastwest;whiteSpace=wrap;html=1;" vertex="1" parent="TKN5x8VOKqGEZoHQyoC4-160">
          <mxGeometry y="26" width="310" height="34" as="geometry" />
        </mxCell>
        <mxCell id="TKN5x8VOKqGEZoHQyoC4-162" value="ProjectServiceImpl" style="swimlane;fontStyle=1;align=center;verticalAlign=top;childLayout=stackLayout;horizontal=1;startSize=26;horizontalStack=0;resizeParent=1;resizeParentMax=0;resizeLast=0;collapsible=1;marginBottom=0;whiteSpace=wrap;html=1;" vertex="1" parent="WIyWlLk6GJQsqaUBKTNV-1">
          <mxGeometry x="745" y="-210" width="320" height="46" as="geometry" />
        </mxCell>
        <mxCell id="TKN5x8VOKqGEZoHQyoC4-163" value="" style="line;strokeWidth=1;fillColor=none;align=left;verticalAlign=middle;spacingTop=-1;spacingLeft=3;spacingRight=3;rotatable=0;labelPosition=right;points=[];portConstraint=eastwest;strokeColor=inherit;" vertex="1" parent="TKN5x8VOKqGEZoHQyoC4-162">
          <mxGeometry y="26" width="320" height="20" as="geometry" />
        </mxCell>
        <mxCell id="TKN5x8VOKqGEZoHQyoC4-164" value="" style="endArrow=diamondThin;endFill=0;endSize=24;html=1;rounded=0;exitX=0.13;exitY=0;exitDx=0;exitDy=0;exitPerimeter=0;" edge="1" parent="WIyWlLk6GJQsqaUBKTNV-1" source="TKN5x8VOKqGEZoHQyoC4-53" target="TKN5x8VOKqGEZoHQyoC4-162">
          <mxGeometry width="160" relative="1" as="geometry">
            <mxPoint x="750" y="110" as="sourcePoint" />
            <mxPoint x="910" y="110" as="targetPoint" />
            <Array as="points">
              <mxPoint x="590" y="300" />
              <mxPoint x="570" y="-180" />
            </Array>
          </mxGeometry>
        </mxCell>
        <mxCell id="TKN5x8VOKqGEZoHQyoC4-165" value="" style="endArrow=block;dashed=1;endFill=0;endSize=12;html=1;rounded=0;exitX=0.5;exitY=1;exitDx=0;exitDy=0;entryX=0.5;entryY=0;entryDx=0;entryDy=0;" edge="1" parent="WIyWlLk6GJQsqaUBKTNV-1" source="TKN5x8VOKqGEZoHQyoC4-162" target="TKN5x8VOKqGEZoHQyoC4-160">
          <mxGeometry width="160" relative="1" as="geometry">
            <mxPoint x="750" y="210" as="sourcePoint" />
            <mxPoint x="910" y="210" as="targetPoint" />
          </mxGeometry>
        </mxCell>
        <mxCell id="TKN5x8VOKqGEZoHQyoC4-166" value="ProjectController" style="swimlane;fontStyle=1;align=center;verticalAlign=top;childLayout=stackLayout;horizontal=1;startSize=26;horizontalStack=0;resizeParent=1;resizeParentMax=0;resizeLast=0;collapsible=1;marginBottom=0;whiteSpace=wrap;html=1;" vertex="1" parent="WIyWlLk6GJQsqaUBKTNV-1">
          <mxGeometry x="767.5" y="-390" width="275" height="60" as="geometry" />
        </mxCell>
        <mxCell id="TKN5x8VOKqGEZoHQyoC4-168" value="" style="line;strokeWidth=1;fillColor=none;align=left;verticalAlign=middle;spacingTop=-1;spacingLeft=3;spacingRight=3;rotatable=0;labelPosition=right;points=[];portConstraint=eastwest;strokeColor=inherit;" vertex="1" parent="TKN5x8VOKqGEZoHQyoC4-166">
          <mxGeometry y="26" width="275" height="8" as="geometry" />
        </mxCell>
        <mxCell id="TKN5x8VOKqGEZoHQyoC4-169" value="- createProject(ProjectVo) : ResponseVo" style="text;strokeColor=none;fillColor=none;align=left;verticalAlign=top;spacingLeft=4;spacingRight=4;overflow=hidden;rotatable=0;points=[[0,0.5],[1,0.5]];portConstraint=eastwest;whiteSpace=wrap;html=1;" vertex="1" parent="TKN5x8VOKqGEZoHQyoC4-166">
          <mxGeometry y="34" width="275" height="26" as="geometry" />
        </mxCell>
        <mxCell id="TKN5x8VOKqGEZoHQyoC4-170" value="" style="endArrow=diamondThin;endFill=0;endSize=24;html=1;rounded=0;exitX=1.029;exitY=0.132;exitDx=0;exitDy=0;exitPerimeter=0;entryX=1.003;entryY=-0.358;entryDx=0;entryDy=0;entryPerimeter=0;" edge="1" parent="WIyWlLk6GJQsqaUBKTNV-1" source="TKN5x8VOKqGEZoHQyoC4-161" target="TKN5x8VOKqGEZoHQyoC4-169">
          <mxGeometry width="160" relative="1" as="geometry">
            <mxPoint x="750" y="-100" as="sourcePoint" />
            <mxPoint x="910" y="-100" as="targetPoint" />
            <Array as="points">
              <mxPoint x="1240" y="-20" />
              <mxPoint x="1230" y="-350" />
            </Array>
          </mxGeometry>
        </mxCell>
        <mxCell id="TKN5x8VOKqGEZoHQyoC4-171" value="PythonScriptExecutor" style="swimlane;fontStyle=1;align=center;verticalAlign=top;childLayout=stackLayout;horizontal=1;startSize=26;horizontalStack=0;resizeParent=1;resizeParentMax=0;resizeLast=0;collapsible=1;marginBottom=0;whiteSpace=wrap;html=1;" vertex="1" parent="WIyWlLk6GJQsqaUBKTNV-1">
          <mxGeometry x="1360" y="1094" width="290" height="114" as="geometry" />
        </mxCell>
        <mxCell id="TKN5x8VOKqGEZoHQyoC4-172" value="- &amp;lt;&amp;lt;Constant&amp;gt;&amp;gt; python : Stirng&lt;div&gt;- &amp;lt;&amp;lt;Constant&amp;gt;&amp;gt; script : String&lt;/div&gt;&lt;div&gt;- &amp;lt;&amp;lt;Constant&amp;gt;&amp;gt; proccessBuilder : processBuilder&lt;/div&gt;" style="text;strokeColor=none;fillColor=none;align=left;verticalAlign=top;spacingLeft=4;spacingRight=4;overflow=hidden;rotatable=0;points=[[0,0.5],[1,0.5]];portConstraint=eastwest;whiteSpace=wrap;html=1;" vertex="1" parent="TKN5x8VOKqGEZoHQyoC4-171">
          <mxGeometry y="26" width="290" height="54" as="geometry" />
        </mxCell>
        <mxCell id="TKN5x8VOKqGEZoHQyoC4-173" value="" style="line;strokeWidth=1;fillColor=none;align=left;verticalAlign=middle;spacingTop=-1;spacingLeft=3;spacingRight=3;rotatable=0;labelPosition=right;points=[];portConstraint=eastwest;strokeColor=inherit;" vertex="1" parent="TKN5x8VOKqGEZoHQyoC4-171">
          <mxGeometry y="80" width="290" height="8" as="geometry" />
        </mxCell>
        <mxCell id="TKN5x8VOKqGEZoHQyoC4-174" value="+ method(type): type" style="text;strokeColor=none;fillColor=none;align=left;verticalAlign=top;spacingLeft=4;spacingRight=4;overflow=hidden;rotatable=0;points=[[0,0.5],[1,0.5]];portConstraint=eastwest;whiteSpace=wrap;html=1;" vertex="1" parent="TKN5x8VOKqGEZoHQyoC4-171">
          <mxGeometry y="88" width="290" height="26" as="geometry" />
        </mxCell>
        <mxCell id="TKN5x8VOKqGEZoHQyoC4-175" value="" style="endArrow=diamondThin;endFill=0;endSize=24;html=1;rounded=0;exitX=0.563;exitY=0.034;exitDx=0;exitDy=0;exitPerimeter=0;entryX=0.496;entryY=0.795;entryDx=0;entryDy=0;entryPerimeter=0;" edge="1" parent="WIyWlLk6GJQsqaUBKTNV-1" source="TKN5x8VOKqGEZoHQyoC4-171" target="TKN5x8VOKqGEZoHQyoC4-42">
          <mxGeometry width="160" relative="1" as="geometry">
            <mxPoint x="1550" y="1060" as="sourcePoint" />
            <mxPoint x="1490" y="990" as="targetPoint" />
          </mxGeometry>
        </mxCell>
        <mxCell id="TKN5x8VOKqGEZoHQyoC4-176" value="ProjectVo" style="swimlane;fontStyle=1;align=center;verticalAlign=top;childLayout=stackLayout;horizontal=1;startSize=26;horizontalStack=0;resizeParent=1;resizeParentMax=0;resizeLast=0;collapsible=1;marginBottom=0;whiteSpace=wrap;html=1;" vertex="1" parent="WIyWlLk6GJQsqaUBKTNV-1">
          <mxGeometry x="420" y="-390" width="160" height="88" as="geometry" />
        </mxCell>
        <mxCell id="TKN5x8VOKqGEZoHQyoC4-177" value="- projectNm : String&lt;div&gt;- projectDesc : String&lt;/div&gt;" style="text;strokeColor=none;fillColor=none;align=left;verticalAlign=top;spacingLeft=4;spacingRight=4;overflow=hidden;rotatable=0;points=[[0,0.5],[1,0.5]];portConstraint=eastwest;whiteSpace=wrap;html=1;" vertex="1" parent="TKN5x8VOKqGEZoHQyoC4-176">
          <mxGeometry y="26" width="160" height="54" as="geometry" />
        </mxCell>
        <mxCell id="TKN5x8VOKqGEZoHQyoC4-178" value="" style="line;strokeWidth=1;fillColor=none;align=left;verticalAlign=middle;spacingTop=-1;spacingLeft=3;spacingRight=3;rotatable=0;labelPosition=right;points=[];portConstraint=eastwest;strokeColor=inherit;" vertex="1" parent="TKN5x8VOKqGEZoHQyoC4-176">
          <mxGeometry y="80" width="160" height="8" as="geometry" />
        </mxCell>
        <mxCell id="TKN5x8VOKqGEZoHQyoC4-180" value="Use" style="endArrow=open;endSize=12;dashed=1;html=1;rounded=0;entryX=0;entryY=0.5;entryDx=0;entryDy=0;exitX=1;exitY=0.75;exitDx=0;exitDy=0;" edge="1" parent="WIyWlLk6GJQsqaUBKTNV-1" source="TKN5x8VOKqGEZoHQyoC4-176" target="TKN5x8VOKqGEZoHQyoC4-169">
          <mxGeometry width="160" relative="1" as="geometry">
            <mxPoint x="440" as="sourcePoint" />
            <mxPoint x="600" as="targetPoint" />
          </mxGeometry>
        </mxCell>
        <mxCell id="TKN5x8VOKqGEZoHQyoC4-182" value="Use" style="endArrow=open;endSize=12;dashed=1;html=1;rounded=0;exitX=1;exitY=1;exitDx=0;exitDy=0;entryX=-0.024;entryY=-0.178;entryDx=0;entryDy=0;entryPerimeter=0;" edge="1" parent="WIyWlLk6GJQsqaUBKTNV-1" source="TKN5x8VOKqGEZoHQyoC4-176" target="TKN5x8VOKqGEZoHQyoC4-161">
          <mxGeometry width="160" relative="1" as="geometry">
            <mxPoint x="440" as="sourcePoint" />
            <mxPoint x="600" as="targetPoint" />
          </mxGeometry>
        </mxCell>
      </root>
    </mxGraphModel>
  </diagram>
</mxfile>
